<mxfile host="app.diagrams.net" modified="2023-10-18T08:16:58.683Z" agent="Mozilla/5.0 (Windows NT 10.0; Win64; x64) AppleWebKit/537.36 (KHTML, like Gecko) Chrome/118.0.0.0 Safari/537.36" version="22.0.4" etag="8vHPbAFQfvy2bZN7h8CZ" type="github">
  <diagram name="Page-1" id="8PxNshNEXJLh6Z3Hgus9">
    <mxGraphModel>
      <root>
        <mxCell id="0" />
        <mxCell id="1" parent="0" />
      </root>
    </mxGraphModel>
  </diagram>
</mxfile>
